HIERARCHY
ROOT hip
{
  OFFSET 0 0 0
  CHANNELS 6 Xposition Yposition Zposition Zrotation Yrotation Xrotation
  JOINT abdomen
  {
    OFFSET 0 20.6881 -0.73152
    CHANNELS 3 Zrotation Xrotation Yrotation
    JOINT chest
    {
      OFFSET 0 11.7043 -0.48768
      CHANNELS 3 Zrotation Xrotation Yrotation
      JOINT neck
      {
        OFFSET 0 22.1894 -2.19456
        CHANNELS 3 Zrotation Xrotation Yrotation
        JOINT head
        {
          OFFSET -0.24384 7.07133 1.2192
          CHANNELS 3 Zrotation Xrotation Yrotation
          JOINT leftEye
          {
            OFFSET 4.14528 8.04674 8.04672
            CHANNELS 3 Zrotation Xrotation Yrotation
            End Site
            {
              OFFSET 1 0 0
            }
          }
          JOINT rightEye
          {
            OFFSET -3.6576 8.04674 8.04672
            CHANNELS 3 Zrotation Xrotation Yrotation
            End Site
            {
              OFFSET 1 0 0
            }
          }
        }
      }
      JOINT rCollar
      {
        OFFSET -2.68224 19.2634 -4.8768
        CHANNELS 3 Zrotation Xrotation Yrotation
        JOINT rShldr
        {
          OFFSET -8.77824 -1.95073 1.46304
          CHANNELS 3 Zrotation Xrotation Yrotation
          JOINT rForeArm
          {
            OFFSET -28.1742 -1.7115 0.48768
            CHANNELS 3 Zrotation Xrotation Yrotation
            JOINT rHand
            {
              OFFSET -22.5879 0.773209 7.07136
              CHANNELS 3 Zrotation Xrotation Yrotation
              JOINT rThumb1
              {
                OFFSET -1.2192 -0.487915 3.41376
                CHANNELS 3 Zrotation Xrotation Yrotation
                JOINT rThumb2
                {
                  OFFSET -3.37035 -0.52449 3.41376
                  CHANNELS 3 Zrotation Xrotation Yrotation
                  End Site
                  {
                    OFFSET -1.78271 -1.18214 1.43049
                  }
                }
              }
              JOINT rIndex1
              {
                OFFSET -7.75947 0.938293 5.60832
                CHANNELS 3 Zrotation Xrotation Yrotation
                JOINT rIndex2
                {
                  OFFSET -2.54057 -0.884171 1.56538
                  CHANNELS 3 Zrotation Xrotation Yrotation
                  End Site
                  {
                    OFFSET -1.62519 -0.234802 1.16502
                  }
                }
              }
              JOINT rMid1
              {
                OFFSET -8.24714 1.18213 3.41376
                CHANNELS 3 Zrotation Xrotation Yrotation
                JOINT rMid2
                {
                  OFFSET -3.10165 -0.590103 1.0647
                  CHANNELS 3 Zrotation Xrotation Yrotation
                  End Site
                  {
                    OFFSET -2.48547 -0.328903 0.83742
                  }
                }
              }
              JOINT rRing1
              {
                OFFSET -8.82822 0.546677 1.51678
                CHANNELS 3 Zrotation Xrotation Yrotation
                JOINT rRing2
                {
                  OFFSET -2.60934 -0.819778 -0.0198488
                  CHANNELS 3 Zrotation Xrotation Yrotation
                  End Site
                  {
                    OFFSET -2.33842 -0.294052 0.168128
                  }
                }
              }
              JOINT rPinky1
              {
                OFFSET -8.27202 -0.0477905 -0.4584
                CHANNELS 3 Zrotation Xrotation Yrotation
                JOINT rPinky2
                {
                  OFFSET -1.82734 -0.647385 -0.700984
                  CHANNELS 3 Zrotation Xrotation Yrotation
                  End Site
                  {
                    OFFSET -1.69225 -0.51767 -0.607171
                  }
                }
              }
            }
          }
        }
      }
      JOINT lCollar
      {
        OFFSET 2.68224 19.2634 -4.8768
        CHANNELS 3 Zrotation Xrotation Yrotation
        JOINT lShldr
        {
          OFFSET 8.77824 -1.95073 1.46304
          CHANNELS 3 Zrotation Xrotation Yrotation
          JOINT lForeArm
          {
            OFFSET 28.1742 -1.7115 0.48768
            CHANNELS 3 Zrotation Xrotation Yrotation
            JOINT lHand
            {
              OFFSET 22.5879 0.773209 7.07136
              CHANNELS 3 Zrotation Xrotation Yrotation
              JOINT lThumb1
              {
                OFFSET 1.2192 -0.487915 3.41376
                CHANNELS 3 Zrotation Xrotation Yrotation
                JOINT lThumb2
                {
                  OFFSET 3.37035 -0.52449 3.41376
                  CHANNELS 3 Zrotation Xrotation Yrotation
                  End Site
                  {
                    OFFSET 1.78271 -1.18214 1.43049
                  }
                }
              }
              JOINT lIndex1
              {
                OFFSET 7.75947 0.938293 5.60832
                CHANNELS 3 Zrotation Xrotation Yrotation
                JOINT lIndex2
                {
                  OFFSET 2.54057 -0.884171 1.56538
                  CHANNELS 3 Zrotation Xrotation Yrotation
                  End Site
                  {
                    OFFSET 1.62519 -0.234802 1.16502
                  }
                }
              }
              JOINT lMid1
              {
                OFFSET 8.24714 1.18213 3.41376
                CHANNELS 3 Zrotation Xrotation Yrotation
                JOINT lMid2
                {
                  OFFSET 3.10165 -0.590103 1.0647
                  CHANNELS 3 Zrotation Xrotation Yrotation
                  End Site
                  {
                    OFFSET 2.48547 -0.328903 0.83742
                  }
                }
              }
              JOINT lRing1
              {
                OFFSET 8.82822 0.546677 1.51678
                CHANNELS 3 Zrotation Xrotation Yrotation
                JOINT lRing2
                {
                  OFFSET 2.60934 -0.819778 -0.0198488
                  CHANNELS 3 Zrotation Xrotation Yrotation
                  End Site
                  {
                    OFFSET 2.33842 -0.294052 0.168128
                  }
                }
              }
              JOINT lPinky1
              {
                OFFSET 8.27202 -0.0477905 -0.4584
                CHANNELS 3 Zrotation Xrotation Yrotation
                JOINT lPinky2
                {
                  OFFSET 1.82734 -0.647385 -0.700984
                  CHANNELS 3 Zrotation Xrotation Yrotation
                  End Site
                  {
                    OFFSET 1.69225 -0.51767 -0.607171
                  }
                }
              }
            }
          }
        }
      }
    }
  }
  JOINT rButtock
  {
    OFFSET -8.77824 4.35084 1.2192
    CHANNELS 3 Zrotation Xrotation Yrotation
    JOINT rThigh
    {
      OFFSET 0 -1.70687 -2.19456
      CHANNELS 3 Zrotation Xrotation Yrotation
      JOINT rShin
      {
        OFFSET 0 -36.8199 0.73152
        CHANNELS 3 Zrotation Xrotation Yrotation
        JOINT rFoot
        {
          OFFSET 0.73152 -45.1104 -5.12064
          CHANNELS 3 Zrotation Xrotation Yrotation
          End Site
          {
            OFFSET -1.1221 -3.69964 12.103
          }
        }
      }
    }
  }
  JOINT lButtock
  {
    OFFSET 8.77824 4.35084 1.2192
    CHANNELS 3 Zrotation Xrotation Yrotation
    JOINT lThigh
    {
      OFFSET 0 -1.70687 -2.19456
      CHANNELS 3 Zrotation Xrotation Yrotation
      JOINT lShin
      {
        OFFSET 0 -36.8199 0.73152
        CHANNELS 3 Zrotation Xrotation Yrotation
        JOINT lFoot
        {
          OFFSET -0.73152 -45.1104 -5.12064
          CHANNELS 3 Zrotation Xrotation Yrotation
          End Site
          {
            OFFSET 1.1221 -3.69964 12.103
          }
        }
      }
    }
  }
}
MOTION
Frames:	4
Frame Time:	0.00833333
41.6235 52.9497 95.1969 24.4344 -25.6279 0.3342 23.3482 55.8957 -10.9227 1.03438 -10.563 0.231226 -6.04858 -4.84079 -4.24038 -12.6507 -20.0972 -8.97868 -0.0 0.0 0.0 -0.0 0.0 0.0 -1.60167e-13 5.75293e-13 8.67397e-13 30.321 -21.2457 57.6195 -13.5212 -6.57101 24.603 -0.345166 16.4427 2.37766 -2.37967e-09 5.05676e-09 -2.39855e-09 -4.13397e-09 8.77936e-09 -4.11381e-09 -2.37967e-09 5.05676e-09 -2.39857e-09 7.73091 5.47488 0.417314 -2.37967e-09 5.05675e-09 -2.39855e-09 2.90554 0.965183 0.102902 -2.37966e-09 5.05676e-09 -2.39855e-09 10.2786 0.731801 0.0259123 -2.37968e-09 5.05676e-09 -2.39854e-09 2.22167 -0.733487 -0.20892 -1.60048e-13 5.75273e-13 8.67232e-13 -37.5353 31.1818 -52.0898 28.414 -34.8456 -75.1357 0.0816407 8.60512 -1.2171 -2.64631e-10 1.30947e-09 4.86267e-10 -4.63466e-10 2.26313e-09 8.32383e-10 -2.64624e-10 1.30947e-09 4.86283e-10 -7.73091 5.47488 -0.417314 -2.64627e-10 1.30948e-09 4.86272e-10 -2.90554 0.965183 -0.102902 -2.64639e-10 1.30948e-09 4.86272e-10 -10.2786 0.731801 -0.0259123 -2.64631e-10 1.30947e-09 4.86268e-10 -2.22167 -0.733487 0.20892 -2.03217e-16 0.0 -3.88251e-19 -122.229 -71.6643 -131.87 -176.425 67.3582 177.705 -14.2663 -12.9783 -25.3378 2.03217e-16 0.0 3.88251e-19 73.9536 -76.8009 61.2161 172.959 79.3703 -173.132 -1.70108 2.15866 -12.1054
41.4255 52.8058 97.066 24.7558 -26.5373 1.5609 22.8705 56.3271 -10.4344 0.97212 -10.7884 0.320854 -5.89629 -5.00889 -4.42436 -12.3947 -20.9717 -9.48378 -0.0 0.0 0.0 -0.0 0.0 0.0 -2.17272e-14 8.40439e-13 9.74465e-13 30.447 -22.0505 58.2147 -13.7123 -6.72287 24.9805 -0.341694 16.3648 2.36573 -3.1986e-09 5.94313e-09 -2.32892e-09 -5.5488e-09 1.03103e-08 -3.98004e-09 -3.1986e-09 5.94313e-09 -2.32895e-09 7.73091 5.47488 0.417314 -3.19861e-09 5.94313e-09 -2.32893e-09 2.90554 0.965183 0.102902 -3.1986e-09 5.94313e-09 -2.32893e-09 10.2786 0.731801 0.0259123 -3.19861e-09 5.94313e-09 -2.32891e-09 2.22167 -0.733487 -0.20892 -2.15826e-14 8.40385e-13 9.74314e-13 -36.8323 30.5076 -53.0275 28.4198 -34.8949 -75.1905 0.0511432 6.84697 -0.965971 -1.17013e-10 1.32063e-09 8.98483e-10 -2.05511e-10 2.27645e-09 1.54287e-09 -1.17006e-10 1.32064e-09 8.98501e-10 -7.73091 5.47488 -0.417314 -1.17008e-10 1.32064e-09 8.98491e-10 -2.90554 0.965183 -0.102902 -1.1702e-10 1.32064e-09 8.98491e-10 -10.2786 0.731801 -0.0259123 -1.17011e-10 1.32064e-09 8.9849e-10 -2.22167 -0.733487 0.20892 -2.03217e-16 0.0 -3.88251e-19 -124.81 -71.1011 -133.752 -176.611 65.8184 177.983 -14.8181 -13.6294 -25.5348 2.03217e-16 0.0 3.88251e-19 77.4305 -77.8984 63.7612 168.576 83.9086 -168.782 -1.45454 0.942542 -10.7298
41.1876 52.7376 98.8596 25.0489 -27.3416 2.7721 22.2935 56.6445 -9.97934 0.916557 -10.9457 0.382889 -5.82682 -5.19623 -4.56841 -12.1423 -21.8565 -9.87331 -0.0 0.0 0.0 -0.0 0.0 0.0 1.01738e-13 9.89189e-13 9.7971e-13 30.4681 -22.8881 59.04 -13.767 -6.76793 25.0864 -0.350631 16.6064 2.40221 -3.61614e-09 6.31983e-09 -2.10474e-09 -6.26834e-09 1.09578e-08 -3.58502e-09 -3.61614e-09 6.31983e-09 -2.10477e-09 7.73091 5.47488 0.417314 -3.61614e-09 6.31983e-09 -2.10475e-09 2.90554 0.965183 0.102902 -3.61613e-09 6.31983e-09 -2.10475e-09 10.2786 0.731801 0.0259123 -3.61614e-09 6.31983e-09 -2.10473e-09 2.22167 -0.733487 -0.20892 1.01875e-13 9.89116e-13 9.79561e-13 -36.0346 29.7505 -54.2341 28.4227 -34.8853 -75.1556 0.0380975 5.56236 -0.784229 -1.22639e-10 1.50605e-09 1.32365e-09 -2.12156e-10 2.59284e-09 2.27729e-09 -1.22633e-10 1.50606e-09 1.32367e-09 -7.73091 5.47488 -0.417314 -1.22634e-10 1.50606e-09 1.32366e-09 -2.90554 0.965183 -0.102902 -1.22646e-10 1.50606e-09 1.32366e-09 -10.2786 0.731801 -0.0259123 -1.22636e-10 1.50606e-09 1.32366e-09 -2.22167 -0.733487 0.20892 -2.03217e-16 0.0 -3.88251e-19 -127.188 -70.247 -135.367 -176.748 64.3531 178.181 -15.2031 -14.1161 -25.5762 2.03217e-16 0.0 3.88251e-19 79.3922 -78.9596 64.511 138.693 88.3162 -138.926 -1.12546 0.295593 -9.40944
41.1534 52.8535 100.697 25.9381 -28.086 4.0679 21.6243 56.799 -9.61084 0.87418 -11.0085 0.404186 -5.90519 -5.43655 -4.67528 -11.8505 -22.7558 -10.1128 -0.0 0.0 0.0 -0.0 0.0 0.0 2.49132e-13 9.84216e-13 8.06132e-13 30.2097 -23.7133 60.0988 -13.6508 -6.67565 24.8545 -0.377999 17.2223 2.49694 -3.33842e-09 5.81412e-09 -1.44561e-09 -5.78035e-09 1.00722e-08 -2.44939e-09 -3.33842e-09 5.81412e-09 -1.44563e-09 7.73091 5.47488 0.417314 -3.33842e-09 5.81412e-09 -1.44562e-09 2.90554 0.965183 0.102902 -3.33842e-09 5.81412e-09 -1.44561e-09 10.2786 0.731801 0.0259123 -3.33842e-09 5.81412e-09 -1.4456e-09 2.22167 -0.733487 -0.20892 2.49207e-13 9.8415e-13 8.05966e-13 -35.1081 28.8595 -55.7549 28.4204 -34.8062 -75.0251 0.0328162 4.76176 -0.67144 -4.51233e-10 2.07097e-09 1.85237e-09 -7.75791e-10 3.56774e-09 3.19383e-09 -4.5123e-10 2.07097e-09 1.85239e-09 -7.73091 5.47488 -0.417314 -4.51229e-10 2.07097e-09 1.85238e-09 -2.90554 0.965183 -0.102902 -4.51239e-10 2.07097e-09 1.85238e-09 -10.2786 0.731801 -0.0259123 -4.51229e-10 2.07097e-09 1.85238e-09 -2.22167 -0.733487 0.20892 -2.03217e-16 0.0 -3.88251e-19 -129.32 -69.0013 -136.599 -176.848 62.9669 178.305 -15.3621 -14.4524 -25.374 2.03217e-16 0.0 3.88251e-19 78.7687 -80.0328 62.3176 14.9009 86.0508 -15.156 -0.725708 0.478553 -8.09125
